<svg width="103" height="141" viewBox="0 0 103 141" fill="none" xmlns="http://www.w3.org/2000/svg">
  <path
    d="M33.2922 7.39612C39.6084 5.2819 44.7122 7.05713 48.0195 13.3412C50.9562 10.8456 54.0061 8.10586 57.9077 9.91677C62.2971 11.954 66.896 12.9013 71.6082 13.6044C75.3622 14.4563 75.3346 17.7085 75.7777 20.5854C78.9306 21.4552 82.6674 21.7055 85.5936 23.0637C89.4953 24.8746 88.1695 29.0083 88.0286 32.5046C88.6296 32.4868 89.1173 32.7131 89.9622 32.8085C97.714 34.6255 99.8708 42.7501 94.7463 48.6824C94.1624 49.3018 93.4652 50.1655 92.6374 50.6717C89.5875 53.4115 89.6218 54.6147 93.2968 56.914C98.5653 60.2498 101.402 66.9091 100.128 72.8476C99.9012 73.336 100.162 74.0508 100.406 74.1639C103.497 77.0827 102.511 80.4837 101.883 83.7537C101.254 87.0237 98.9186 89.5015 95.8343 91.0381C95.3638 91.4133 95.0066 91.5443 94.2922 91.8064C95.082 98.4061 93.0865 100.151 86.4645 104.201C81.9686 106.863 75.2094 106.101 71.6306 102.956C70.1057 104.326 68.2235 105.826 66.829 107.554C64.624 110.389 60.5471 110.871 57.116 108.685C56.6283 108.459 56.2368 107.386 55.6357 107.404C49.8862 108.298 51.7959 103.544 50.8652 100.441C45.8473 101.674 41.5713 99.3924 37.0686 97.5993C33.5413 96.259 31.2676 96.6878 29.4369 99.9935C26.5861 105.497 24.5802 111.096 21.7294 116.599C18.992 121.859 18.5454 127.291 18.2293 133.08C17.9132 138.87 15.691 141.104 9.66334 140.68C1.34481 140.084 -5.48307 136.915 -11.5347 131.435L-11.7786 131.322C-13.015 130.155 -15.6012 128.064 -15.3745 127.575C-14.241 125.133 -12.2627 122.787 -10.2672 121.041C-8.62883 119.427 -5.75408 118.981 -4.60346 117.14C-2.64226 114.192 -1.41263 110.904 -0.670701 107.39C0.586472 100.85 1.24259 94.3277 2.27308 88.2761C0.208907 87.6148 -1.25421 86.9357 -2.83067 86.5009C-3.91943 86.2923 -5.00819 86.0838 -6.07978 86.4769C-12.0388 88.4601 -15.9233 87.2508 -19.3269 81.8125C-19.5707 81.6993 -19.9279 81.8303 -20.1718 81.7171C-26.0174 83.4561 -29.1875 81.9847 -31.7462 76.6418C-32.0072 75.927 -32.3987 74.8548 -32.0587 74.1222C-30.0013 70.3281 -31.9074 66.7721 -32.8553 63.0672C-33.5078 61.2803 -32.1305 58.9514 -31.8248 57.0156C-31.6153 55.9256 -31.4058 54.8356 -31.6668 54.1208C-33.0852 50.7911 -31.9071 45.6985 -28.9705 43.2029C-26.6177 41.3268 -24.5089 39.3375 -22.7744 36.8776C-19.4187 32.202 -14.9846 31.5887 -10.0286 32.4049C-12.2987 24.5245 -10.4852 20.6173 -3.22785 17.7526C-3.32045 10.2893 3.04048 5.52446 10.3046 7.11514C11.1495 7.21048 12.4478 6.329 13.0317 5.70956C17.9123 -0.33592 24.1323 -1.60434 30.0363 2.9168C31.3861 3.84009 32.0386 5.62703 33.2922 7.39612ZM74.0384 94.5752C73.4202 93.9914 73.1764 93.8782 72.9325 93.7651C72.1838 92.8239 71.4351 91.8828 70.6863 90.9416C71.8884 90.906 73.3344 90.9835 74.406 90.5904C75.8348 90.0663 77.7513 89.7686 78.2047 88.7917C79.2419 87.1955 79.3038 85.1465 79.9667 83.0797C80.0801 82.8355 79.2352 82.7401 79.1046 82.3827C78.2426 81.6858 77.3805 80.9889 76.2746 80.1788C77.2157 79.4283 78.1568 78.6779 79.2284 78.2848C82.1993 76.9924 82.4878 74.455 82.7764 71.9176C83.0649 69.3802 81.7152 68.4569 79.4072 67.6825C76.7419 67.0391 76.5771 65.4785 78.8165 63.8466C79.287 63.4713 79.8881 63.4535 80.1148 62.9651C80.7948 61.4998 82.1893 59.7726 82.0245 58.212C81.8768 57.253 79.6821 56.2344 78.3324 55.3111C78.0885 55.1979 77.3741 55.4599 77.2436 55.1026C76.512 54.763 75.5366 54.3103 75.5195 53.7087C75.5023 53.1071 76.1995 52.2435 76.6701 51.8682C77.1406 51.493 77.9684 50.9867 78.6828 50.7247C82.4814 48.9261 82.5605 47.4787 79.9399 44.1847C78.4425 42.3024 76.8832 42.4691 75.0972 43.1242C71.2985 44.9229 71.2985 44.9229 69.863 40.9916C69.2104 39.2047 68.0702 37.1914 66.7204 36.2681C63.777 34.3083 59.8478 35.7496 57.3989 38.4715C55.5339 40.574 53.4079 41.9618 51.1685 43.5937C50.698 43.9689 49.8531 43.8736 49.3653 43.6472C48.991 43.1767 48.8433 42.2177 48.8262 41.6161C49.5853 38.7035 50.5882 35.904 51.2168 32.634C52.1854 28.6314 49.8087 25.4506 45.9414 24.8429C41.5864 24.0088 41.0815 23.1808 42.5207 18.803C42.8436 17.4688 43.1493 15.5329 42.5139 14.3476C40.965 10.6606 37.211 9.80862 33.9 11.8336C33.0723 12.3399 31.6435 12.864 30.7986 12.7686C30.3109 12.5423 29.545 10.9995 29.6412 10.1538C30.0088 6.16897 27.0997 5.41238 24.304 4.41158C21.0205 3.18443 18.2934 4.59 16.8028 7.16308C16.0094 8.87252 15.7208 11.4099 14.6492 11.803C13.2204 12.3271 11.2525 10.82 9.43214 10.272C6.27921 9.4022 3.92649 11.2783 1.81763 13.2677C0.0659598 15.126 1.0757 16.7819 2.44263 18.3068C2.81699 18.7773 2.85131 19.9805 2.51128 20.7131C2.04073 21.0884 0.969139 21.4814 0.23758 21.1419C-2.07044 20.3675 -3.48207 21.4932 -4.7632 22.9762C-7.79599 26.3176 -7.57967 29.683 -5.67354 33.239C-4.14178 36.3245 -5.29239 38.1649 -8.78535 38.0278C-11.0762 37.8549 -13.4976 37.3247 -15.7884 37.1519C-16.8772 36.9433 -18.6632 37.5985 -18.8899 38.0869C-19.2574 42.0717 -22.4722 43.2509 -24.9383 45.3712C-27.1777 47.0032 -28.6683 49.5762 -27.2842 51.7027C-25.2819 54.4129 -26.8069 55.7828 -28.0709 57.8675C-28.7681 58.7312 -29.2215 59.708 -29.431 60.798C-29.2833 61.757 -28.8746 63.4307 -28.1431 63.7703C-23.8671 66.0517 -23.8671 66.0517 -26.0378 70.09C-26.2645 70.5785 -26.8484 71.1979 -26.7179 71.5553C-25.9348 73.6996 -25.3785 76.3323 -23.881 78.2146C-22.1397 80.2101 -20.7624 77.8812 -19.2375 76.5113C-17.8258 75.3856 -15.9093 75.0879 -14.3672 74.3196C-14.2024 75.8802 -14.0375 77.4407 -13.7593 78.7571C-13.3507 80.4308 -12.6981 82.2178 -11.9323 83.7605C-10.0329 82.8612 -8.00307 82.3193 -6.34758 81.3067C-5.16264 80.6695 -4.48257 79.2042 -3.42814 78.2096C-2.95759 77.8343 -2.2432 77.5723 -1.5288 77.3103C-1.26779 78.025 -0.762917 78.853 -0.8591 79.6988C-0.824777 80.902 -1.03431 81.992 -0.999981 83.1951C2.06713 81.057 3.31393 78.3707 0.954426 75.7915C-2.1538 72.2711 -5.60207 69.4834 -8.93699 66.4515C-10.0429 65.6414 -11.3927 64.7181 -13.2749 66.219C-13.8587 66.8384 -16.0534 65.8198 -17.1593 65.0097C-17.647 64.7833 -17.829 62.6211 -17.829 62.6211C-15.703 61.2334 -15.0744 57.9634 -11.5815 58.1006C-9.53445 58.1602 -8.12282 57.0345 -9.99462 54.6817C-11.2482 52.9126 -10.551 52.0489 -8.61732 52.3528C-6.92751 52.5435 -5.2377 52.7342 -3.06019 53.1512C-2.52779 50.727 -1.99538 48.3028 -1.46298 45.8786C-1.21912 45.9917 -0.861929 45.8607 -0.618076 45.9739C-0.339899 47.2903 -0.305573 48.4935 0.08595 49.5656C0.364126 50.882 0.886154 52.3115 1.16433 53.6279C2.33211 52.389 3.49989 51.1502 4.53716 49.5539C4.6505 49.3097 4.87719 48.8213 5.10388 48.3329C5.67061 47.1119 6.36785 46.2482 7.17843 45.1404C6.80406 44.6698 5.942 43.9729 4.83608 43.1628C5.77717 42.4123 6.47441 41.5487 7.41549 40.7982C8.27756 41.4951 8.78243 42.3231 9.64449 43.02C14.2881 41.3167 15.2635 41.7694 14.6692 46.2426C17.8221 47.1124 18.5641 43.5982 21.195 43.0384C20.7588 44.6168 20.192 45.8378 19.7558 47.4163C19.1101 50.0847 18.351 52.9973 18.3063 55.6479C18.3234 56.2495 20.2914 57.7565 20.762 57.3813C23.6195 56.3331 26.2161 54.5701 29.3004 53.0335C28.1773 51.6218 27.6553 50.1923 26.5494 49.3822C24.4509 47.5177 25.6015 45.6773 26.7521 43.8368C26.9788 43.3484 27.937 43.1995 28.5381 43.1817C28.7819 43.2949 29.4002 43.8786 29.4173 44.4802C29.6783 45.195 29.3383 45.9276 29.3555 46.5292C33.1541 44.7306 34.7478 45.767 34.9984 50.3356C40.9746 48.954 40.0575 54.7614 42.0598 57.4716C42.1559 56.6258 42.0254 56.2684 41.8949 55.911C41.5996 53.9931 42.0186 51.8131 44.4228 51.7417C46.5832 51.5571 46.5213 53.6061 46.6862 55.1667C46.9987 57.6862 47.9122 60.188 44.9585 62.0819C44.6013 62.213 44.6184 62.8146 44.7489 63.1719C45.2881 65.2031 45.4701 67.3653 46.1398 69.7538C47.2114 69.3607 47.9258 69.0987 48.8841 68.9498C49.4851 68.932 50.2167 69.2715 50.7044 69.4979C49.4747 72.7857 50.955 74.0664 53.9774 74.5788C53.9774 74.5788 54.2213 74.692 54.1079 74.9362C55.1005 75.9905 55.4026 82.3638 54.8359 83.5848C54.4959 84.3175 53.912 84.9369 53.3281 85.5563C54.4168 85.7648 55.2618 85.8602 56.3505 86.0687C56.5944 86.1819 57.0821 86.4082 57.8136 86.7478C56.8725 87.4982 56.0448 88.0045 55.7048 88.7371C55.2514 89.7139 55.1724 91.1613 55.7906 91.7451C58.6549 95.1522 58.655 95.1522 55.9794 98.3626C55.7527 98.851 55.526 99.3394 55.4126 99.5836C56.5357 100.995 57.5283 102.05 58.6514 103.461C59.0086 103.33 59.6096 103.312 60.0802 102.937C62.3195 101.305 64.6722 99.4292 67.8423 100.901C68.5739 101.24 70.0027 100.716 70.6999 99.8524C71.2667 98.6313 72.5306 96.5467 74.0384 94.5752ZM54.5438 94.4313C51.8786 93.7879 49.5705 93.0135 47.5235 92.9539C43.7867 92.7035 40.6338 91.8337 37.9171 89.3856C34.2078 85.8831 34.4964 83.3457 39.1228 81.0408C41.4926 79.7662 44.1064 78.6048 46.5896 77.0861C45.3807 72.6664 42.688 75.2752 40.4143 75.7039C35.9802 76.3172 31.5633 77.5321 27.2426 77.9012C23.2791 78.1393 21.895 76.0128 22.7503 72.2544C23.7018 67.6502 26.1163 63.725 29.6368 60.61C31.519 59.1091 33.4012 57.6082 35.2834 56.1073C35.1529 55.7499 35.2662 55.5057 35.1357 55.1483C33.5764 55.315 31.8866 55.1243 30.7016 55.7616C27.9746 57.1672 25.378 58.9302 22.6509 60.3357C19.5666 61.8723 17.0148 60.9847 16.1974 57.6372C15.5277 55.2487 15.9296 52.4671 15.7304 49.7033C13.1786 48.8157 13.0034 51.1089 12.4538 52.9315C11.6157 57.2915 10.9081 62.0089 10.07 66.3689C9.97377 67.2147 9.03269 67.9652 8.57931 68.942C7.6039 68.4893 6.38463 67.9234 5.87976 67.0954C3.48593 63.313 1.33595 59.6438 -0.814027 55.9746C-2.37333 56.1413 -3.93263 56.308 -5.49193 56.4747C-6.51204 58.6726 -7.53215 60.8704 -8.6656 63.3125C-7.69019 63.7652 -6.58427 64.5753 -5.60886 65.0281C0.0340832 68.8344 5.09314 73.2602 5.90013 80.4615C6.11645 83.8268 5.73171 87.21 5.59084 90.7064C4.9862 99.0334 3.89386 107.134 0.754512 115.175C-0.36178 118.219 -2.09629 120.678 -5.06722 121.971C-6.25216 122.608 -7.4371 123.245 -8.8659 123.769C-8.13434 124.109 -7.40277 124.449 -6.93223 124.073C-4.07465 123.025 -1.52278 123.913 1.04626 125.402C3.61529 126.891 6.42818 128.494 9.33726 129.25C12.2463 130.007 14.5715 131.383 15.8594 134.355C16.069 133.265 16.1651 132.419 16.2613 131.573C16.9861 127.458 17.467 123.229 18.4356 119.226C18.8547 117.046 20.1187 114.961 21.0254 113.008C22.4817 109.231 23.9381 105.455 25.6383 101.792C29.2653 93.9775 33.5345 91.8036 41.4683 95.7828C43.1753 96.5751 45.1261 97.4806 46.9293 97.427C48.8801 98.3325 52.0159 98.6007 54.5438 94.4313ZM84.0647 53.8163C85.1363 53.4232 86.4517 53.1433 87.3928 52.3929C88.8044 51.2672 89.8417 49.6709 90.879 48.0747C92.0296 46.2342 93.5374 44.2627 94.0698 41.8385C94.8118 38.3243 93.3143 36.442 89.9347 36.0607C88.2449 35.87 86.3284 36.1677 83.9242 36.2391C83.7594 34.6785 83.5945 33.1179 83.4297 31.5574C82.7704 25.3151 79.7136 23.5995 74.5033 26.5238C72.9612 27.2921 72.2468 27.5542 71.7076 25.523C71.2989 23.8493 70.9864 21.3297 69.8805 20.5196C67.0504 18.3156 64.0899 15.7543 59.3501 18.3034C60.4321 14.0566 57.784 14.0147 55.4932 13.8419C53.2023 13.6691 50.5714 14.2288 49.8123 17.1415C49.4894 18.4757 49.7676 19.792 50.1763 21.4658C49.5753 21.4836 48.3732 21.5193 46.9272 21.4418C49.8534 22.8 53.4769 23.2945 54.861 25.421C56.2451 27.5475 55.747 31.1749 55.9633 34.5403C59.1095 30.9547 62.9768 31.5624 66.7308 32.4143C68.3072 32.8492 70.2581 33.7547 71.1373 35.0532C73.0091 37.406 74.3932 39.5325 77.8861 39.6697C79.0882 39.634 80.1942 40.4441 81.3001 41.2542C84.8789 44.3993 85.2428 48.7237 84.0647 53.8163ZM74.1139 101.437C79.1833 102.009 82.8858 101.056 86.4578 99.7459C90.3869 98.3046 90.3698 97.703 88.1065 94.278C86.8529 92.5089 87.8558 89.7095 89.8685 88.5659C91.7678 87.6666 93.7805 86.5231 95.4188 84.909C98.9393 81.794 98.7917 80.835 96.0406 77.1836C94.6565 75.0571 91.9398 72.6089 95.7213 70.2087C96.4357 69.9467 96.6109 67.6535 96.2194 66.5813C95.1754 63.7222 93.4169 61.1252 89.7934 60.6306C86.0395 59.7787 85.3937 62.4471 84.1298 64.5318C88.4401 68.0164 88.8556 74.1455 84.6378 78.1242C84.0539 78.7436 83.13 80.0957 83.5044 80.5663C84.7923 83.5385 83.415 85.8674 82.151 87.9521C79.7536 92.4788 77.2257 96.6481 74.1139 101.437ZM24.7355 74.363C31.3985 75.9716 36.8698 73.762 42.585 71.6656C39.1367 68.8779 40.9674 65.5722 41.4827 62.5464C40.3767 61.7363 39.5147 61.0393 38.4088 60.2292C37.059 59.3059 35.7264 58.9842 33.9575 60.2409C29.7226 63.618 26.367 68.2936 24.7355 74.363ZM-10.5489 128.034C-4.08861 135.188 3.58418 138.452 12.7133 137.941C12.0093 134.349 9.79744 132.729 6.28731 131.99C4.1098 131.573 1.91512 130.554 0.190989 129.16C-3.14393 126.128 -6.50639 126.349 -10.5489 128.034ZM38.1541 85.0434C41.1662 89.4095 44.9202 90.2615 49.2409 89.8924C49.2512 86.0386 49.2616 82.1848 49.5158 78.4443C45.961 80.3561 42.1795 82.7563 38.1541 85.0434ZM6.52551 64.427C6.88271 64.296 7.12656 64.4092 7.48376 64.2782C8.07802 59.805 8.91614 55.4449 9.5104 50.9717C9.0227 50.7454 8.77884 50.6322 8.29114 50.4058C6.42613 52.5083 4.44776 54.8551 2.58275 56.9576C3.98401 59.6856 5.25476 62.0563 6.52551 64.427Z"
    fill="#020202" fill-opacity="0.10" />
</svg>