<svg width="123" height="91" viewBox="0 0 123 91" fill="none" xmlns="http://www.w3.org/2000/svg">
  <path
    d="M103.932 65.5222C106.248 68.2636 104.46 70.6906 102.387 72.3265C100.44 73.6944 98.459 73.7349 96.461 73.1118L96.1934 72.9845C93.6942 73.434 92.4479 71.202 91.2186 69.6335C90.2568 68.1924 88.7769 67.1603 87.4223 65.8601C87.4223 65.8601 87.1548 65.7328 86.8872 65.6054C86.1016 65.8871 84.9061 65.646 84.2627 66.3231C84.6894 67.5096 85.509 68.5552 86.4538 69.3327C87.3986 70.1101 87.8254 71.2965 88.6449 72.3422C89.1969 73.2605 88.1945 75.4057 87.033 76.4919C85.1027 78.5234 82.854 78.4366 80.3378 78.2225C79.4099 78.1086 77.9639 78.4038 77.1613 78.0219C76.8937 77.8945 76.3587 77.6399 76.0911 77.5126C74.5943 75.8168 72.7046 74.2619 71.4584 72.0299C71.1739 71.2389 70.6388 70.9842 70.0868 70.066C69.3926 68.7522 68.59 68.3702 67.5537 69.1882C66.5174 70.0062 65.4642 70.1606 64.2688 69.9194C65.6234 71.2197 66.7274 73.0563 68.082 74.3565C69.4366 75.6568 70.0056 77.2387 70.4492 79.0888C70.8759 80.2753 70.1072 81.2206 68.8034 81.9112C65.9283 83.1653 62.894 83.3601 59.7343 83.8232C58.2883 84.1184 57.2012 82.9454 55.9889 82.0407C55.7213 81.9134 55.044 81.2632 54.2414 80.8812C53.4388 80.4993 53.029 79.9765 52.7446 79.1855C51.3561 76.558 49.0566 74.4802 48.1862 71.4437C47.1669 72.9253 46.1137 73.0797 44.776 72.4431C44.241 72.1884 43.4384 71.8065 43.0625 72.6109C42.8119 73.1472 43.6145 73.5292 43.7567 73.9247C45.6633 76.1433 47.4447 78.63 49.3513 80.8485C49.7611 81.3713 50.0286 81.4986 50.4384 82.0214C51.793 83.3217 51.8438 85.3126 50.5569 86.6669C47.5904 89.5164 43.7873 90.6566 39.5406 89.9467C38.6127 89.8329 38.3283 89.0419 37.7932 88.7873C36.171 87.3597 34.2814 85.8048 32.6592 84.3772C30.2344 82.5677 29.2388 79.7993 27.4575 77.3126C26.9055 76.3943 26.7463 75.3352 26.1943 74.4169C26.052 74.0214 26.052 74.0214 25.517 73.7667C22.7163 72.7617 20.9519 70.9386 19.4381 68.5792C17.6568 66.0925 15.3574 64.0148 13.1832 61.6689C11.2935 60.114 9.92197 58.1501 8.67572 55.9181C6.8944 53.4313 4.86247 51.481 3.47398 48.8534C2.22773 46.6213 1.24901 44.5166 0.395592 42.1437C-0.0311183 40.9573 -0.457828 39.7708 -1.00984 38.8525C-2.64892 36.7613 -3.62764 34.6566 -3.69539 32.002C-3.88845 29.6156 -5.26 27.6517 -6.75685 25.9559C-8.39594 23.8647 -10.4279 21.9143 -12.0669 19.8231C-12.619 18.9048 -13.5469 18.791 -14.0989 17.8727C-16.5575 14.7359 -16.5169 11.1495 -15.4231 7.40875C-15.0472 6.60427 -14.6713 5.79979 -14.5629 4.86799C-14.4546 3.93619 -13.8111 3.25903 -12.9002 2.7092C-11.1866 2.54133 -9.6322 1.31435 -7.79333 0.878323C-5.16879 0.160628 -2.63567 1.03838 0.0227423 1.64797C2.68116 2.25756 5.48181 3.26263 7.90656 5.07218C9.11894 5.97696 10.8495 6.47274 12.563 6.30488C14.937 6.1235 17.1687 5.54664 19.4173 5.63343C22.0588 5.57937 24.575 5.79348 27.2334 6.40307C29.3567 6.75801 30.8536 8.45376 32.4757 9.88134C33.8303 11.1816 35.4186 11.2819 37.1491 11.7777C37.6842 12.0323 38.077 11.8915 38.1854 10.9597C38.1685 10.296 38.6866 9.88704 39.3639 10.5372C39.6314 10.6645 39.6314 10.6645 39.899 10.7918C41.8631 10.0876 43.9865 10.4426 45.8253 10.0066C47.0039 9.58405 48.074 10.0933 49.1441 10.6026C50.4818 11.2393 51.8195 11.8759 53.1572 12.5125C54.102 13.2899 55.0299 13.4037 55.8156 13.1221C57.1363 13.095 58.4571 13.068 59.6356 12.6455C62.6529 11.787 65.2944 11.7329 68.112 13.4016C69.9847 14.2929 72.1081 14.6479 74.0723 13.9437C77.0896 13.0851 79.6227 13.9629 81.5124 15.5178C84.2047 17.4547 86.7717 19.6597 88.8206 22.2737C90.1921 24.2376 91.9565 26.0607 93.9715 27.3475C96.1287 29.0297 97.7678 31.1209 99.4069 33.2121C101.866 36.349 104.324 39.4858 107.176 42.4818C107.585 43.0046 107.853 43.132 107.87 43.7956C108.74 46.8321 111.04 48.9098 113.214 51.2557C114.711 52.9515 115.547 54.6607 116.651 56.4973C116.793 56.8928 116.936 57.2883 117.203 57.4156C118.131 57.5294 117.881 58.0657 117.362 58.4747C117.237 58.7429 117.112 59.011 117.112 59.011C117.647 59.2657 117.897 58.7294 118.165 58.8567C118.558 58.7159 118.951 58.575 118.968 59.2387C119.11 59.6341 118.592 60.0431 118.324 59.9158C117.522 59.5338 117.538 60.1975 117.413 60.4657C115.859 61.6926 116.929 62.2019 117.748 63.2475C119.245 64.9433 120.742 66.639 122.114 68.6029C123.076 70.044 122.842 71.244 121.145 72.0755C119.181 72.7797 117.217 73.4839 115.236 73.5244C113.522 73.6923 111.917 72.9283 111.081 71.2191C110.244 69.5098 108.764 68.4777 107.535 66.9093C106.431 65.0727 105.361 64.5634 103.932 65.5222ZM55.6229 62.5269C54.8373 62.8085 54.4614 63.613 53.9433 64.022C54.7289 63.7403 55.3723 63.0632 55.6229 62.5269C55.8905 62.6542 56.0158 62.386 56.1411 62.1179C55.8736 61.9905 55.7482 62.2587 55.6229 62.5269ZM94.8251 55.616C93.7719 55.7703 93.2707 56.8429 92.3598 57.3928C93.1624 57.7747 93.4299 57.9021 93.8058 57.0976C94.0564 56.5613 94.5745 56.1523 94.8251 55.616C95.0927 55.7433 95.218 55.4751 94.8251 55.616C94.9504 55.3478 94.9504 55.3478 94.8251 55.616ZM113.007 58.6966C113.935 58.8104 114.22 59.6014 114.897 60.2515C115.039 60.647 115.574 60.9017 115.825 60.3654C116.343 59.9564 116.201 59.5609 115.54 59.5744C115.273 59.4471 115.005 59.3197 115.398 59.1789C116.292 57.9654 115.222 57.4561 115.205 56.7925C114.294 57.3423 113.509 57.624 113.007 58.6966C112.865 58.3011 112.865 58.3011 113.007 58.6966C112.74 58.5693 112.74 58.5693 113.007 58.6966ZM37.3326 86.2736L37.6001 86.4009C37.3326 86.2736 37.4579 86.0054 37.3326 86.2736C38.9784 83.4511 41.1932 82.2106 44.2275 82.0157C45.5482 81.9887 46.7267 81.5662 48.1897 81.9347C46.5506 79.8434 45.0368 77.484 43.0049 75.5337C42.1854 74.488 41.3658 73.4424 40.7969 71.8605C40.2449 70.9422 37.5526 69.0053 36.7669 69.287C34.8027 69.9912 32.6794 69.6362 30.8405 70.0723C30.4477 70.2131 30.0549 70.3539 29.5367 70.7629C27.3558 73.3307 27.3558 73.3307 28.8866 76.3538L29.0288 76.7492C30.2581 78.3177 30.7018 80.1678 31.9311 81.7362C33.8208 83.2911 35.3176 84.9868 37.3326 86.2736ZM75.6877 20.2849C75.9552 20.4122 75.9552 20.4122 75.6877 20.2849C75.9383 19.7486 76.1889 19.2123 76.1719 18.5486C76.155 17.885 76.4056 17.3487 76.9407 17.6033C77.4757 17.858 77.3504 18.1261 77.0998 18.6624C76.8662 19.8624 76.7578 20.7942 76.5242 21.9942C76.2736 22.5305 76.8086 22.7851 77.2015 22.6443C77.469 22.7716 77.5943 22.5035 77.4521 22.108C77.5774 21.8398 77.5774 21.8398 77.7027 21.5717C77.9533 21.0353 77.5265 19.8489 78.5967 20.3582C79.3993 20.7402 78.6306 21.6855 78.5053 21.9536C77.8788 23.2944 78.1632 24.0854 79.3756 24.9902C79.6262 24.4539 79.484 24.0584 79.7346 23.5221C79.5923 23.1266 79.5754 22.4629 80.5033 22.5767C81.1637 22.5632 80.7878 23.3677 80.93 23.7632C80.5711 25.2313 80.0868 26.9676 81.9596 27.8589C82.2102 27.3225 82.3185 26.3907 82.3016 25.7271C82.4269 25.4589 82.4099 24.7953 82.945 25.0499C83.3378 24.9091 83.3548 25.5727 83.2295 25.8409C83.1042 26.1091 83.2464 26.5045 82.9958 27.0409C82.1187 28.918 82.2948 30.6408 83.5242 32.2092C83.7578 31.0092 84.1337 30.2047 84.3674 29.0048C84.618 28.4684 84.618 28.4684 85.0108 28.3276C85.6712 28.3141 85.8134 28.7096 85.5628 29.2459C85.0616 30.3185 85.363 31.7731 84.2015 32.8593C84.0762 33.1275 84.0762 33.1275 84.0762 33.1275C84.4859 33.6503 84.6451 34.7094 85.4477 35.0914C85.6069 36.1505 86.4095 36.5325 87.3544 37.3099C87.588 36.11 88.0892 35.0373 88.3229 33.8373C88.5735 33.301 88.6988 33.0329 88.9663 33.1602C89.6267 33.1467 89.3761 33.683 89.2508 33.9512C89.1424 34.883 89.034 35.8148 88.5329 36.8874C88.0317 37.96 88.1908 39.0192 89.1357 39.7966C89.1357 39.7966 89.0104 40.0648 89.4032 39.9239L89.5285 39.6558C89.9044 38.8513 90.1381 37.6513 90.514 36.8469C90.6393 36.5787 90.6223 35.9151 91.1574 36.1697C91.6925 36.4244 91.5672 36.6925 91.3166 37.2288C90.9407 38.0333 90.9576 38.697 90.5817 39.5014C90.3311 40.0378 90.0805 40.5741 90.0975 41.2377C90.9339 42.947 92.1632 44.5154 93.2673 46.352C93.3587 44.7565 93.7176 43.2884 94.3441 41.9476C94.4694 41.6794 94.4525 41.0158 94.9876 41.2705C95.5226 41.5251 95.3973 41.7933 95.1467 42.3296C94.7878 43.7977 94.5541 44.9977 93.9276 46.3385C93.5517 47.1429 93.5687 47.8066 93.9954 48.993C94.6049 46.9886 95.482 45.1115 96.2338 43.5025C96.3591 43.2344 96.0746 42.4434 96.6097 42.698C97.1448 42.9527 97.287 43.3482 97.0364 43.8845C96.2846 45.4934 95.8004 47.2297 95.0486 48.8387C94.1546 50.0522 94.8319 50.7023 95.3839 51.6206C95.5261 52.0161 95.7937 52.1434 96.1865 52.0026L96.4371 51.4662C96.9213 49.7299 97.2634 47.5982 97.7476 45.8619C97.9982 45.3256 98.3741 44.5211 98.6247 43.9848C98.75 43.7166 99.1428 43.5758 99.4104 43.7031C99.9454 43.9578 99.5526 44.0986 99.302 44.6349C99.0514 45.1712 98.9261 45.4394 98.6755 45.9757C98.066 47.9802 97.7239 50.1119 97.2397 51.8482C96.9891 52.3845 96.7385 52.9208 96.8807 53.3163C97.558 53.9665 97.7172 55.0256 98.5198 55.4076C99.3224 55.7895 99.4647 56.185 99.4816 56.8486C99.8744 56.7078 99.9997 56.4397 100.125 56.1715C100.752 54.8307 101.11 53.3626 101.737 52.0218C101.988 51.4855 102.238 50.9491 103.041 51.3311C103.576 51.5857 103.058 51.9947 102.807 52.5311L102.682 52.7992C101.93 54.4082 101.856 56.6673 100.301 57.8943C100.301 57.8943 99.9083 58.0351 100.176 58.1624C100.853 58.8125 100.352 59.8852 101.029 60.5353C101.707 61.1855 101.456 61.7218 100.545 62.2716C101.49 63.0491 102.401 62.4992 103.329 62.613C104.257 62.7268 104.775 62.3178 104.348 61.1314C104.223 61.3996 104.223 61.3996 104.223 61.3996C104.097 61.6677 103.579 62.0767 103.312 61.9494C103.044 61.8221 103.295 61.2857 103.42 61.0176C103.796 60.2131 104.565 59.2678 104.941 58.4633C105.066 58.1952 105.317 57.6588 105.852 57.9135C106.387 58.1681 106.404 58.8318 106.011 58.9726C105.886 59.2408 105.493 59.3816 105.902 59.9044C107.064 58.8183 108.226 57.7321 109.387 56.6459C109.905 56.237 110.423 55.828 110.833 56.3508C111.653 57.3964 112.029 56.5919 112.279 56.0556C112.797 55.6466 113.315 55.2376 113.976 55.2241C112.337 53.1328 110.572 51.3098 108.933 49.2185C107.579 47.9183 107.528 45.9274 106.173 44.6271C103.447 41.3629 100.721 38.0988 98.12 34.5665C96.4809 32.4752 94.5743 30.2567 92.2918 28.8426C90.8119 27.8105 89.4573 26.5103 88.3533 24.6737C87.659 23.3599 86.5719 22.187 85.2343 21.5503C84.4317 21.1684 83.6121 20.1228 82.9348 19.4726C80.3509 16.6039 76.7476 15.2169 73.229 17.1481C74.157 17.2619 74.0486 18.1937 74.7259 18.8438L74.8512 18.5757C75.1018 18.0393 75.3524 17.503 75.8875 17.7577C76.4225 18.0123 75.9044 18.4213 76.0466 18.8168C75.6538 18.9576 75.6707 19.6213 75.6877 20.2849ZM83.0062 58.5138C83.1654 59.5729 83.0571 60.5047 83.2162 61.5638L83.4838 61.6911C84.4862 59.5459 85.4885 57.4006 86.4909 55.2553C88.0961 56.0192 86.132 56.7234 86.684 57.6417C87.4696 57.36 87.8455 56.5556 88.3806 56.8102C88.9157 57.0649 89.041 56.7967 89.4338 56.6559C90.2025 55.7105 91.2388 54.8926 91.8823 54.2154C92.2751 54.0746 92.2581 53.4109 92.7932 53.6656C93.203 54.1884 92.6849 54.5974 92.5596 54.8655C91.9161 55.5427 91.0052 56.0925 90.2364 57.0378L90.1111 57.306L90.3787 57.4333C90.9137 57.688 91.1643 57.1516 91.2896 56.8835C92.0584 55.9382 92.9693 55.3883 93.6128 54.7112C94.1309 54.3022 94.9166 54.0205 95.0757 55.0796C94.9504 55.3478 95.218 55.4751 95.3433 55.207C95.4686 54.9388 95.8614 54.798 95.5939 54.6706C95.3263 54.5433 95.1841 54.1478 95.1841 54.1478C93.9717 53.2431 93.1522 52.1974 92.5832 50.6155C91.6045 48.5108 91.0186 46.2652 89.6471 44.3013C88.2755 42.3374 87.2968 40.2326 85.7999 38.5369C83.6258 36.191 82.112 33.8316 80.8488 30.9359C80.2799 29.354 79.3181 27.9129 78.231 26.74C76.0568 24.3941 74.1502 22.1755 72.887 19.2798C72.4434 17.4297 71.2141 15.8613 68.9654 15.7745C68.305 15.7881 67.8953 15.2653 67.3602 15.0106C66.2901 14.5013 65.0946 14.2602 64.0414 14.4145C61.7928 14.3277 59.7033 15.3001 57.4716 15.8769C60.2892 17.5457 61.9452 20.3005 63.6012 23.0554C63.818 21.1918 64.4445 19.851 65.3385 18.6375C65.4638 18.3694 65.7144 17.833 66.2495 18.0877C66.7845 18.3423 66.5339 18.8787 66.2833 19.415C65.7821 20.4876 65.2809 21.5603 64.7797 22.6329C63.8857 23.8464 64.1871 25.301 65.0067 26.3466C65.5587 27.2649 66.2529 28.5787 67.0725 29.6243C67.2147 30.0197 67.7667 30.938 68.2848 30.529C68.6777 30.3882 68.9283 29.8519 68.9113 29.1882C69.2872 28.3838 69.7884 27.3111 70.1643 26.5066C70.2896 26.2385 70.5402 25.7022 71.0753 25.9568C71.6104 26.2115 71.0922 26.6205 70.9669 26.8886C70.7163 27.4249 70.608 28.3567 70.3574 28.8931C69.8562 29.9657 69.355 31.0383 68.444 31.5882C68.8538 32.111 69.2636 32.6338 69.548 33.4247C69.9239 32.6203 69.907 31.9566 70.1576 31.4203C70.5335 30.6158 70.7672 29.4159 71.4106 28.7387C71.5359 28.4705 71.9287 28.3297 72.1962 28.457C72.4638 28.5844 72.3385 28.8525 72.2132 29.1207C71.5867 30.4615 70.9602 31.8023 70.3337 33.1431C70.0831 33.6794 69.8156 33.5521 69.1552 33.5656C69.8325 34.2157 69.9917 35.2748 70.7943 35.6568C71.6883 34.4433 71.6544 33.116 72.2809 31.7753C72.4062 31.5071 72.3893 30.8434 72.9244 31.0981C73.4594 31.3527 73.3341 31.6209 73.3511 32.2845C73.2427 33.2163 73.0091 34.4163 72.2403 35.3616C71.4716 36.3069 71.7561 37.0979 72.7009 37.8754C73.3274 36.5346 73.6864 35.0664 74.3129 33.7256C74.4382 33.4575 74.4212 32.7938 74.9563 33.0485C75.4914 33.3031 75.3661 33.5713 75.2408 33.8395C74.8649 34.6439 74.7565 35.5757 74.3806 36.3802C72.9684 38.0027 73.5374 39.5846 74.6245 40.7576C74.892 40.8849 74.7667 41.153 74.7667 41.153C75.3187 42.0713 75.6032 42.8623 76.6733 43.3716C77.3845 45.349 78.3632 47.4537 79.9854 48.8813C80.8049 49.9269 81.1978 49.7861 82.0918 48.5726C82.4677 47.7682 82.8436 46.9637 83.2195 46.1592C83.3448 45.891 83.8629 45.482 84.1305 45.6094C84.6655 45.864 84.4149 46.4003 84.2896 46.6685C83.7884 47.7411 83.2872 48.8138 82.3763 49.3636C80.9472 50.3224 81.3739 51.5089 81.9259 52.4272C82.3526 53.6136 82.5118 54.6727 82.7963 55.4637C82.8301 56.791 82.7218 57.7228 83.0062 58.5138ZM39.5841 19.1645C39.4588 19.4327 39.4588 19.4327 39.7263 19.56C41.4907 21.3831 42.3441 23.756 43.5904 25.988C44.8366 28.2201 45.6901 30.593 46.6688 32.6977C47.0955 33.8842 48.3079 34.789 48.7346 35.9754C49.7133 38.0802 50.5498 39.7894 51.9213 41.7533C52.3311 42.2761 52.7409 42.7989 53.1506 43.3217C54.8067 46.0766 56.588 48.5633 58.6369 51.1774C61.0955 54.3142 64.2145 57.4375 64.4584 61.8149C64.6006 62.2103 64.6175 62.874 65.2779 62.8605C65.9383 62.847 65.6877 63.3833 65.1695 63.7923C64.2586 64.3421 63.3645 65.5556 62.4536 66.1054C61.5426 66.6553 62.4875 67.4327 62.2369 67.969C62.1116 68.2372 62.7889 68.8873 63.1817 68.7465C64.77 68.8468 66.3582 68.9471 67.6451 67.5928C66.023 66.1652 66.023 66.1652 64.4686 67.3922C64.3433 67.6603 64.0757 67.533 63.9504 67.8012C63.5576 67.942 63.4323 68.2102 62.8972 67.9555C62.4875 67.4327 62.8803 67.2919 63.2731 67.151C64.4516 66.7285 64.4008 64.7376 65.8468 64.4424C65.9552 63.5106 66.3311 62.7061 66.9745 62.029C67.0998 61.7608 67.2251 61.4927 66.9576 61.3653C66.4225 61.1107 66.5478 60.8425 66.6731 60.5744C67.1743 59.5017 67.6755 58.4291 68.1767 57.3564C68.302 57.0883 68.2851 56.4246 68.8201 56.6793C69.3552 56.9339 69.1046 57.4703 68.9793 57.7384C68.6034 58.5429 68.2275 59.3474 67.9939 60.5473C68.9048 59.9975 69.423 59.5885 70.0664 58.9114C70.4592 58.7705 70.5845 58.5024 71.1196 58.757C71.5294 59.2798 71.6547 59.0116 72.0475 58.8708C72.5656 58.4618 73.2091 57.7847 73.9947 57.503C74.3876 57.3621 74.9057 56.9532 75.0479 57.3486C75.7252 57.9988 76.2434 57.5898 76.7615 57.1808C77.1543 57.0399 77.5472 56.8991 77.6894 57.2946C77.8316 57.6901 77.4388 57.8309 77.3135 58.0991C76.4025 58.6489 75.4916 59.1987 74.8481 59.8759C75.3832 60.1305 75.9013 59.7215 76.0266 59.4534C76.9376 58.9035 77.581 58.2264 78.6173 57.4084C79.0101 57.2676 79.2608 56.7312 79.7958 56.9859C80.3309 57.2405 79.5452 57.5222 79.6875 57.9177C80.0803 57.7768 80.5984 57.3679 80.9913 57.227C81.3841 57.0862 81.5094 56.818 81.3672 56.4225C81.0657 54.9679 80.6221 53.1178 80.3207 51.6632C79.5519 52.6085 78.8916 52.6221 79.1422 52.0857C79.5011 50.6176 78.2888 49.7128 77.7367 48.7945C75.5118 44.4577 73.0362 40.6573 70.2931 36.7295C68.9046 34.1019 67.1233 31.6152 65.342 29.1285C63.8282 26.7691 62.565 23.8734 61.0512 21.514C58.5756 17.7135 55.5989 14.9857 51.5858 13.0758C49.178 11.9299 46.8041 12.1113 44.1626 12.1654C43.1094 12.3197 42.3237 12.6014 41.3958 12.4876C40.0751 12.5146 39.0049 12.0053 37.8434 13.0914C37.7181 13.3596 37.183 13.105 36.5226 13.1185C36.1298 13.2593 35.3272 12.8773 34.5246 12.4954C35.3441 13.541 35.6286 14.332 36.3059 14.9821C37.2677 16.4232 38.2295 17.8643 39.5841 19.1645ZM15.6245 12.3509C15.4992 12.6191 15.4992 12.6191 15.6245 12.3509C15.7667 12.7464 15.892 12.4783 15.6245 12.3509C16.0004 11.5465 16.3763 10.742 16.7522 9.9375C16.8775 9.66934 17.2534 8.86486 17.7884 9.11951C18.3235 9.37415 18.0729 9.91047 17.8223 10.4468C17.3211 11.5194 16.9622 12.9876 16.7285 14.1875C17.1044 13.383 17.355 12.8467 17.7309 12.0422C17.8562 11.7741 18.249 11.6332 18.5166 11.7606C18.7841 11.8879 18.6588 12.156 18.5335 12.4242C18.1576 13.2287 18.1745 13.8923 17.7986 14.6968C17.1721 16.0376 17.1721 16.0376 18.5098 16.6742C18.6012 15.0788 18.9602 13.6107 19.8542 12.3972C19.9795 12.129 20.1048 11.8609 20.3724 11.9882C20.6399 12.1155 20.7821 12.511 20.6568 12.7792C20.4062 13.3155 20.0303 14.12 20.0473 14.7836C19.9389 15.7154 19.4377 16.788 19.5969 17.8472C19.7222 17.579 19.8475 17.3108 19.9728 17.0427C20.2234 16.5064 19.922 15.0518 20.8499 15.1656C21.6525 15.5475 20.8838 16.4928 20.7754 17.4247C20.667 18.3565 20.3995 18.2291 21.3444 19.0066C21.3105 17.6793 22.3467 16.8613 22.5804 15.6613C22.831 15.125 22.6888 14.7295 23.2238 14.9842C23.7589 15.2388 23.9011 15.6343 23.6505 16.1706C23.1493 17.2433 22.7734 18.0478 22.5398 19.2477C22.1639 20.0522 21.788 20.8567 22.7328 21.6341C22.7328 21.6341 22.7328 21.6341 22.8751 22.0296L23.0004 21.7615C23.3763 20.957 23.3593 20.2933 23.7352 19.4889C23.8605 19.2207 23.9858 18.9525 24.5209 19.2072C25.056 19.4618 24.6631 19.6027 24.8054 19.9981C24.4295 20.8026 24.4464 21.4663 24.0705 22.2707C23.6946 23.0752 23.8369 23.4707 24.2466 23.9935C24.6225 23.189 24.4634 22.1299 25.2321 21.1846C25.3574 20.9164 25.608 20.3801 26.143 20.6348C26.6781 20.8894 26.4275 21.4257 26.3022 21.6939C25.801 22.7665 25.8349 24.0938 25.3337 25.1665C25.0831 25.7028 25.1 26.3664 25.9027 26.7484C26.2785 25.9439 26.3869 25.0121 26.7628 24.2076C26.8881 23.9395 27.0134 23.6713 27.4062 23.5305C28.0666 23.517 27.816 24.0533 27.9582 24.4488C27.5824 25.2532 27.5993 25.9169 27.2234 26.7214C26.7222 27.794 26.4885 28.994 27.7009 29.8987C28.2021 28.8261 28.3105 27.8943 28.8117 26.8217C28.937 26.5535 29.0623 26.2853 29.5973 26.54C29.8649 26.6673 30.0071 27.0628 29.8818 27.3309C29.6312 27.8673 29.2553 28.6718 29.2723 29.3354C28.9133 30.8035 28.6796 32.0035 29.3739 33.3173L29.6414 33.4446L29.7667 33.1764C30.0004 31.9765 30.1087 31.0446 30.6099 29.972C30.7352 29.7039 30.593 29.3084 30.9858 29.1675C31.6462 29.154 31.7884 29.5495 31.5378 30.0858C31.4295 31.0176 31.0536 31.8221 31.0705 32.4857C31.2297 33.5449 30.0681 34.631 31.1552 35.804C31.0299 36.0721 31.2974 36.1994 31.565 36.3268C31.9578 36.1859 31.6903 36.0586 31.548 35.6631C31.5142 34.3358 31.6056 32.7404 32.2321 31.3996C32.4827 30.8633 32.7333 30.327 33.5359 30.7089C34.0709 30.9636 33.5528 31.3726 33.3022 31.9089C32.5504 33.5178 32.3337 35.3815 32.7774 37.2315C33.1533 36.4271 33.4038 35.8907 33.5122 34.9589C33.6375 34.6908 33.8881 34.1545 34.4232 34.4091C34.9582 34.6638 34.5654 34.8046 34.7076 35.2001C34.457 35.7364 34.5993 36.1319 34.3487 36.6682C33.9897 38.1363 32.9704 39.618 33.9322 41.0591C33.9322 41.0591 33.8069 41.3272 34.0744 41.4545L34.1997 41.1864C34.4334 39.9864 34.667 38.7865 34.9007 37.5865C35.026 37.3183 35.2766 36.782 35.937 36.7685C36.5973 36.755 35.9539 37.4321 36.2214 37.5595C36.5059 38.3504 36.13 39.1549 35.7541 39.9594C35.6458 40.8912 35.1446 41.9638 35.6966 42.8821C35.8219 42.614 36.0725 42.0776 36.1978 41.8095C36.0555 41.414 36.1808 41.1458 36.4484 41.2732C36.7159 41.4005 36.9834 41.5278 37.1257 41.9233C37.2679 42.3188 37.1426 42.5869 37.0173 42.8551C36.7836 44.0551 36.1572 45.3959 36.7261 46.9778C36.7261 46.9778 36.7261 46.9778 36.6008 47.2459C36.6008 47.2459 36.6008 47.2459 36.7261 46.9778C36.7261 46.9778 36.7261 46.9778 36.4586 46.8505C36.9767 46.4415 36.8345 46.046 36.9598 45.7778C37.0681 44.846 37.1765 43.9142 37.8199 43.2371C37.9452 42.9689 37.9283 42.3053 38.4633 42.5599C38.9984 42.8146 38.8731 43.0827 38.8901 43.7464C38.6564 44.9463 38.565 46.5418 38.3313 47.7417C38.223 48.6735 38.2399 49.3372 38.6497 49.86C39.1678 49.451 38.758 48.9282 38.8833 48.66C39.0086 48.3919 39.1339 48.1237 39.4015 48.251C39.669 48.3783 39.5437 48.6465 39.6859 49.042C39.5776 49.9738 39.3439 51.1738 39.2355 52.1056C39.0019 53.3055 39.2864 54.0965 40.2312 54.8739C40.3226 53.2785 39.2186 51.4419 40.8983 49.9468C41.0236 49.6786 41.0067 49.015 41.8093 49.3969C42.3443 49.6516 42.0937 50.1879 41.9684 50.4561C41.0744 51.6695 41.2336 52.7287 41.2675 54.0559C41.4266 55.1151 41.5858 56.1742 41.0846 57.2468C40.9593 57.515 41.1016 57.9105 41.3691 58.0378C41.8703 56.9652 41.9787 56.0334 42.2123 54.8334C42.3376 54.5652 42.1954 54.1698 42.5882 54.0289C42.8557 54.1562 43.1233 54.2836 43.2655 54.679C43.1572 55.6109 43.4416 56.4018 43.3333 57.3336C42.7068 58.6744 42.7406 60.0017 43.4349 61.3155C43.5771 61.711 42.6662 62.2608 43.7363 62.7701C44.3628 61.4293 44.9893 60.0885 45.3483 58.6204C45.5988 58.0841 45.8494 57.5477 46.3845 57.8024C47.0449 57.7889 46.4015 58.466 46.5437 58.8615C46.4692 61.1206 44.8064 63.2794 45.9274 65.7796C45.9274 65.7796 45.8021 66.0478 45.6768 66.3159C45.5515 66.5841 45.284 66.4568 45.0164 66.3294C44.6067 65.8066 43.8041 65.4247 43.3943 64.9019C42.3241 64.3926 41.5046 63.3469 41.2032 61.8923C40.4751 59.2513 39.3541 56.7511 38.1079 54.519C36.3096 51.3686 35.0295 47.8093 33.3565 44.3908C32.1102 42.1587 31.5074 39.2495 29.8683 37.1583C28.7813 35.9853 28.2123 34.4034 27.5181 33.0896C25.31 29.4165 23.6201 25.3343 21.0193 21.802C20.6095 21.2792 20.1997 20.7564 19.9322 20.6291C18.7198 19.7243 17.5074 18.8195 16.8132 17.5057C15.4247 14.8782 13.3758 12.2642 11.5945 9.77744C10.3483 7.54538 9.27812 7.03609 8.20798 6.52679C5.24815 4.46259 2.17996 3.3302 -1.40636 2.6068C-3.79724 2.12453 -6.18812 1.64226 -8.79572 3.0236C-9.70668 3.57343 -10.4924 3.85511 -11.4033 4.40494C-13.3675 5.10912 -13.7434 5.9136 -13.8179 8.17269C-13.2997 7.76369 -13.3167 7.10005 -12.7985 6.69106C-12.9408 6.29558 -12.4226 5.88658 -12.2804 6.28206C-12.1382 6.67754 -12.2635 6.9457 -12.3888 7.21386C-13.2828 8.42734 -13.9093 9.76814 -14.5358 11.1089C-15.1623 12.4497 -14.8609 13.9043 -14.5595 15.359C-14.0583 14.2863 -14.0752 13.6227 -13.9668 12.6909C-13.7671 10.1636 -12.4802 8.80931 -10.533 7.44148C-10.1401 7.30065 -10.0148 7.03249 -9.60506 7.55529C-9.19528 8.0781 -9.58812 8.21894 -9.98095 8.35977C-11.0172 9.17777 -10.9833 10.5051 -11.6098 11.8459C-11.7351 12.114 -11.7182 12.7777 -11.8435 13.0458C-12.5783 15.3184 -12.6528 17.5775 -10.8884 19.4006C-10.8884 19.4006 -10.7462 19.7961 -10.6209 19.5279C-10.6209 19.5279 -10.6209 19.5279 -10.7631 19.1324C-11.0646 17.6778 -10.9731 16.0824 -10.6142 14.6142C-10.2552 13.1461 -10.0385 11.2825 -8.6094 10.3237C-8.21657 10.1828 -7.96597 9.64652 -7.5562 10.1693C-7.41396 10.5648 -7.53926 10.833 -7.93209 10.9738C-9.84545 13.6689 -10.1705 16.4643 -9.30017 19.5009C-9.141 20.56 -9.40853 20.4327 -10.3364 20.3189C-9.53383 20.7008 -9.51689 21.3645 -8.71429 21.7464C-8.73123 21.0828 -8.87346 20.6873 -8.62287 20.151C-8.53144 18.5556 -8.44002 16.9601 -7.27846 15.874C-7.15316 15.6058 -6.77726 14.8013 -6.36749 15.3241C-5.83242 15.5788 -6.35055 15.9878 -6.60115 16.5241C-7.47824 18.4012 -7.69496 20.2648 -7.37661 22.3831C-6.62482 20.7741 -6.14056 19.0378 -5.65631 17.3015C-5.53101 17.0334 -5.28041 16.4971 -5.01288 16.6244C-4.4778 16.879 -4.7284 17.4153 -4.8537 17.6835C-5.33796 19.4198 -5.82222 21.1561 -6.30647 22.8924C-6.54013 24.0923 -6.64849 25.0241 -5.31081 25.6607C-5.7714 23.147 -5.03655 20.8744 -4.56923 18.4745C-4.33557 17.2745 -3.5499 16.9928 -2.63893 16.443C-2.2461 16.3022 -1.85327 16.1613 -1.71103 16.5568C-1.56879 16.9523 -1.69409 17.2205 -2.08693 17.3613C-2.60506 17.7703 -2.99789 17.9111 -2.98095 18.5748C-4.3423 22.1882 -4.91798 25.5199 -3.10278 29.3339C-2.85218 28.7976 -2.72688 28.5294 -2.60159 28.2613C-2.00897 25.5932 -0.471508 23.7025 1.60102 22.0666C1.99386 21.9257 2.11916 21.6576 2.65423 21.9122C2.79646 22.3077 2.67116 22.5758 2.27833 22.7167C2.02773 23.253 1.6349 23.3938 1.11676 23.8028C-0.562931 25.298 -1.44002 27.1751 -1.78204 29.3069C-1.8904 30.2387 -2.141 30.775 -2.24936 31.7068C-2.62526 32.5113 -2.48302 32.9068 -1.80571 33.5569C-1.68041 33.2887 -1.68041 33.2887 -1.55511 33.0206C-1.19615 31.5524 -0.444365 29.9435 0.182129 28.6027C0.432727 28.0664 0.825561 27.9255 1.0931 28.0529C1.62817 28.3075 1.37757 28.8438 1.25227 29.112C1.00167 29.6483 0.751076 30.1846 0.50048 30.7209C-0.251312 32.3299 -0.877807 33.6707 -0.826993 35.6616C-0.701695 35.3935 -0.701694 35.3935 -0.576395 35.1253C-0.126013 32.0617 2.33935 30.2849 4.00211 28.1261C4.12741 27.858 4.64554 27.449 4.78778 27.8445C5.32285 28.0991 4.80471 28.5081 4.67941 28.7763C4.17822 29.8489 3.40949 30.7942 2.37323 31.6122C0.0501004 33.7845 0.26009 36.8346 0.202543 39.7573C0.578438 38.9528 0.686798 38.021 0.937396 37.4847C1.42165 35.7484 2.44098 34.2668 3.19277 32.6578C3.44337 32.1215 3.9615 31.7125 4.49657 31.9671C5.29918 32.3491 4.38821 32.899 4.26291 33.1671C2.47485 35.5941 1.75694 38.5303 1.03902 41.4666C0.913725 41.7347 0.663127 42.271 1.0729 42.7938C1.44879 41.9894 1.55716 41.0576 1.66552 40.1258C1.9906 37.3303 3.38582 35.0442 4.92328 33.1536C5.44141 32.7446 5.81731 31.9401 6.22708 32.4629C6.90439 33.1131 5.99342 33.6629 5.74283 34.1992C4.20536 36.0898 3.20297 38.2351 2.73566 40.635C2.502 41.835 3.07095 43.4169 1.37431 44.2484L1.51655 44.6439C1.80102 45.4349 2.08549 46.2259 2.6375 47.1442C2.7628 46.876 2.7628 46.876 2.8881 46.6078C2.82034 43.9533 4.21557 41.6671 5.34326 39.2537C5.59385 38.7174 6.11199 38.3084 6.50482 38.1676C6.63012 37.8994 7.02296 37.7586 7.16519 38.154C7.43273 38.2814 7.30743 38.5495 7.18213 38.8177C6.5387 39.4948 6.2881 40.0312 5.9122 40.8356C4.90982 42.9809 4.03272 44.858 3.6907 46.9898C3.70764 47.6535 3.45704 48.1898 3.74152 48.9807C5.13001 51.6083 7.55476 53.4178 8.94326 56.0454C9.35303 56.5682 9.36996 57.2318 10.1726 57.6138C10.2809 56.682 10.3893 55.7502 10.3724 55.0866C10.1962 53.3638 10.6805 51.6275 11.4323 50.0185C11.6829 49.4822 11.8082 49.2141 12.3433 49.4687C12.8783 49.7234 12.3602 50.1323 12.5024 50.5278C11.8929 52.5323 11.6762 54.3959 11.4594 56.2595C11.4764 56.9231 11.9031 58.1096 10.7246 58.5321C10.3317 58.6729 10.5993 58.8003 10.5993 58.8003C11.5611 60.2413 12.5228 61.6824 14.128 62.4464C13.7928 59.6645 14.5276 57.3919 15.6553 54.9784C15.7806 54.7103 16.0312 54.174 16.5663 54.4286C16.8338 54.5559 16.976 54.9514 16.7254 55.4877C16.4748 56.0241 16.2243 56.5604 15.9737 57.0967C15.0966 58.9738 15.0221 61.2329 15.3404 63.3512C15.4996 64.4103 16.9626 64.7787 17.5146 65.697C17.7821 65.8244 17.7821 65.8243 17.9244 66.2198C17.9244 66.2198 17.7991 66.488 18.1919 66.3472L18.3172 66.079C17.8566 63.5653 18.1986 61.4335 19.3263 59.0201C19.5769 58.4837 19.4177 57.4246 20.2203 57.8066C20.7554 58.0612 20.3795 58.8657 20.1289 59.402C19.3941 61.6746 18.9267 64.0746 19.3873 66.5883C19.5296 66.9838 19.0114 67.3928 19.4212 67.9156C20.7928 69.8795 22.4319 71.9707 24.5721 72.9893C25.1072 73.2439 25.5 73.1031 25.7506 72.5668C26.77 71.0852 28.0568 69.7308 29.3437 68.3765C30.1124 67.4312 31.0234 66.8814 32.0597 66.0634C32.4525 65.9226 32.8453 65.7817 32.9876 66.1772C33.3973 66.7 32.737 66.7135 32.6117 66.9817C31.826 67.2633 31.1826 67.9405 30.4138 68.8858C31.3417 68.9996 32.1274 68.718 32.6455 68.309C33.8071 67.2228 35.1109 66.5321 36.1472 65.7141C36.54 65.5733 37.0581 65.1643 37.2004 65.5598C37.3426 65.9553 37.3426 65.9553 37.7354 65.8144C38.1283 65.6736 38.3789 65.1373 38.9139 65.3919C39.3068 65.2511 39.5743 65.3784 39.7165 65.7739C39.8588 66.1694 39.4659 66.3102 39.0731 66.4511C38.1452 66.3372 37.7693 67.1417 37.2512 67.5507C37.1259 67.8189 36.4655 67.8324 36.8753 68.3552C37.1428 68.4825 37.8201 69.1327 38.0707 68.5963C38.196 68.3282 38.4466 67.7919 38.8394 67.651C39.4829 66.9739 39.8588 66.1694 40.6445 65.8877C41.1626 65.4787 41.4301 65.606 41.8399 66.1288C41.9821 66.5243 42.1244 66.9198 41.7315 67.0607C40.1433 66.9604 39.659 68.6966 38.6227 69.5146C39.6929 70.0239 40.6377 70.8014 41.315 71.4515C41.7248 71.9743 42.1176 71.8335 42.3852 71.9608C43.9734 72.0611 43.9734 72.0611 45.3856 70.4386C44.8505 70.184 44.5999 70.7203 44.0818 71.1293C43.689 71.2701 43.4384 71.8065 43.2961 71.411C42.8864 70.8882 43.2792 70.7473 43.672 70.6065C44.1902 70.1975 44.8336 69.5203 44.5491 68.7294C44.5491 68.7294 44.6744 68.4612 44.7997 68.193C45.7107 67.6432 45.819 66.7114 46.4625 66.0343C47.2312 65.0889 47.9999 64.1436 49.0362 63.3256C49.429 63.1848 49.9472 62.7758 50.3569 63.2986C50.7667 63.8214 50.3739 63.9622 49.8557 64.3712C49.3207 64.1166 48.5519 65.0619 47.8002 66.6709C48.5858 66.3892 49.2462 66.3757 49.6221 65.5712C50.1233 64.4986 50.892 63.5532 51.9283 62.7353C52.4464 62.3263 53.0729 60.9855 54.16 62.1584C54.16 62.1584 54.5528 62.0176 54.6781 61.7494C55.0709 61.6086 55.3215 61.0722 55.7144 60.9314C56.1072 60.7906 56.3578 60.2543 56.7676 60.7771C57.3026 61.0317 56.7845 61.4407 56.6592 61.7089C56.3917 61.5815 56.2664 61.8497 56.1411 62.1179C56.2833 62.5133 56.5339 61.977 56.5339 61.977C56.9268 61.8362 57.4449 61.4272 57.8377 61.2863C58.2306 61.1455 58.7487 60.7365 58.8909 61.132C59.3007 61.6548 58.515 61.9365 58.1222 62.0773C57.2112 62.6272 56.175 63.4451 55.5315 64.1223C56.8692 64.7589 56.6017 64.6316 57.6379 63.8136C58.6742 62.9956 59.8358 61.9095 60.872 61.0915C61.2649 60.9506 61.783 60.5416 61.9252 60.9371C62.335 61.4599 61.5493 61.7416 61.1565 61.8824C59.8527 62.5731 58.8164 63.3911 58.0477 64.3364C58.3152 64.4637 58.5828 64.5911 58.7081 64.3229C60.0119 63.6322 61.0312 62.1506 62.2097 61.7281L62.335 61.4599C61.9083 60.2735 62.142 59.0735 61.3224 58.0279C58.5624 53.4364 54.7661 49.663 52.006 45.0715C50.4922 42.7122 48.4603 40.7618 47.7322 38.1207C47.4477 37.3297 47.1632 36.5388 46.4859 35.8886C45.2566 34.3202 44.4201 32.611 43.5837 30.9017C42.7302 28.5288 41.6262 26.6922 40.38 24.4602C38.5817 21.3098 36.6581 18.4276 34.467 15.4181C32.2759 12.4086 29.692 9.53991 25.9635 8.42103C22.8953 7.28863 19.4681 7.62436 16.2916 7.42376C14.8455 7.71895 14.3274 8.12795 14.5205 10.5144C14.4121 11.4462 15.2147 11.8281 15.6245 12.3509ZM68.9863 78.7204C68.4342 77.8021 68.2751 76.7429 67.5978 76.0928C65.8334 74.2697 64.1943 72.1785 62.4299 70.3554C60.9331 68.6597 59.829 66.8231 57.1706 66.2135C55.3148 65.9859 53.8518 65.6174 52.2805 66.1808C50.7092 66.7441 49.4223 68.0985 47.7087 68.2663C48.5283 69.3119 49.3478 70.3575 49.6323 71.1485C50.6279 73.9169 52.6599 75.8673 54.0484 78.4948C54.3328 79.2858 55.1354 79.6678 55.6705 79.9224C56.2056 80.1771 56.3139 79.2453 56.7068 79.1044C59.4227 76.7913 62.0473 76.0736 65.383 77.3333C66.4531 77.8426 67.398 78.6201 68.9863 78.7204ZM67.5943 65.6018C68.3969 65.9838 69.0742 66.6339 69.8768 67.0159C72.034 68.6981 73.155 71.1984 74.6688 73.5577C74.811 73.9532 74.9533 74.3487 75.4714 73.9397C78.5971 72.1494 81.7229 70.359 85.702 70.9416C85.2922 70.4188 84.7572 70.1642 84.6149 69.7687C82.9758 67.6774 82.1224 65.3045 79.9652 63.6223C77.3982 61.4173 73.5613 61.2302 70.5609 62.7524C69.2571 63.443 68.6306 64.7838 67.5943 65.6018ZM103.214 68.4585C102.929 67.6675 102.519 67.1447 102.11 66.6219C100.88 65.0535 99.7932 63.8806 98.4386 62.5803C97.3515 61.4074 96.0138 60.7708 94.6762 60.1341C92.5359 59.1155 90.2872 59.0288 87.9472 60.5374C86.5181 61.4963 86.3014 63.3599 87.656 64.6601C89.5457 66.215 91.4353 67.7699 92.8069 69.7338C93.3589 70.6521 94.0193 70.6386 94.9302 70.0888C97.6462 67.7756 100.254 66.3943 103.214 68.4585ZM120.668 68.8981C120.258 68.3753 120.116 67.9798 119.581 67.7252C118.903 67.0751 118.226 66.4249 117.799 65.2385C117.373 64.052 116.804 62.4701 115.073 61.9743C114.806 61.847 114.538 61.7197 114.396 61.3242C112.364 59.3738 108.652 58.9186 106.312 60.4272C106.187 60.6954 105.919 60.568 106.062 60.9635C106.062 60.9635 106.079 61.6272 106.329 61.0909C106.454 60.8227 106.705 60.2864 106.597 61.2182C106.614 61.8818 106.631 62.5455 107.04 63.0683C107.735 64.382 108.947 65.2868 110.034 66.4598C110.711 67.1099 111.246 67.3645 112.157 66.8147C112.676 66.4057 113.603 66.5195 114.138 66.7742C116.279 67.7928 118.277 68.4159 120.668 68.8981ZM48.5081 84.0529C46.2425 83.3025 44.1361 83.6112 41.9044 84.188C40.8512 84.3424 39.8149 85.1604 39.3137 86.233C38.5619 87.842 38.9717 88.3648 40.4347 88.7333C43.7535 89.3293 46.2358 88.2162 48.8264 86.1712C50.3808 84.9442 50.1133 84.8169 48.5081 84.0529ZM76.4332 75.3808C76.8599 76.5673 77.6625 76.9492 78.7157 76.7949C80.304 76.8952 81.6247 76.8682 82.9454 76.8411C84.659 76.6733 85.8206 75.5871 86.8399 74.1055C87.2158 73.301 86.9483 73.1737 86.4132 72.919C83.4703 71.5185 80.7374 73.168 78.2551 74.2811C77.4694 74.5628 77.3611 75.4946 76.4332 75.3808ZM68.1092 80.5975C66.7715 79.9608 65.9689 79.5789 65.1663 79.1969C62.7585 78.051 60.3845 78.2324 58.1867 80.1365C57.7939 80.2774 57.2757 80.6864 57.6855 81.2092C57.8277 81.6046 58.2375 82.1275 58.8979 82.1139C61.8069 82.1872 64.699 81.5968 68.1092 80.5975ZM96.1426 70.9936C97.6225 72.0257 100.389 71.7034 101.944 70.4765C102.462 70.0675 102.32 69.672 101.91 69.1492C100.037 68.2579 97.0197 69.1164 96.1426 70.9936ZM81.2757 58.018C80.2395 58.836 79.596 59.5131 78.5598 60.3311C79.2371 60.9813 80.0397 61.3632 80.4495 61.886C81.1268 62.5362 81.5196 62.3953 81.628 61.4635C81.7363 60.5317 81.5771 59.4726 81.2757 58.018ZM117.525 70.0248C116.187 69.3882 114.724 69.0197 113.404 69.0468C113.011 69.1876 112.476 68.933 112.493 69.5966C112.367 69.8648 112.777 70.3876 113.045 70.5149C113.58 70.7695 114.115 71.0242 114.9 70.7425C115.419 70.3335 116.472 70.1792 117.525 70.0248ZM60.188 65.355C61.9354 66.5144 62.4197 64.7781 63.3307 64.2283C63.7235 64.0875 63.5813 63.692 63.439 63.2965C63.2968 62.901 62.904 63.0418 62.7787 63.31C61.8677 63.8598 61.099 64.8052 60.188 65.355ZM82.6067 63.5683C83.4601 65.9412 84.73 63.9232 85.6579 64.037C84.8384 62.9914 83.4093 63.9502 82.6067 63.5683ZM94.6084 57.4796C95.2688 57.466 95.428 58.5252 95.8039 57.7207C96.0545 57.1844 96.5726 56.7754 96.6979 56.5072C96.8232 56.2391 97.216 56.0982 96.9485 55.9709C96.8062 55.5754 96.4134 55.7163 96.2881 55.9844C95.6447 56.6616 95.1265 57.0706 94.6084 57.4796ZM96.0883 58.5117C96.3559 58.639 96.6234 58.7663 96.8909 58.8936C97.426 59.1483 97.6766 58.612 97.9272 58.0756C98.0525 57.8075 97.9103 57.412 97.6427 57.2847C97.1077 57.03 96.9824 57.2982 96.8571 57.5663C96.9993 57.9618 96.6065 58.1027 96.0883 58.5117ZM79.1693 58.3267C78.5259 59.0038 77.6149 59.5537 76.9715 60.2308L77.239 60.3581C77.8825 59.681 78.7934 59.1312 79.1693 58.3267ZM34.7519 68.0003C36.0727 67.9732 36.4486 67.1688 36.8245 66.3643C36.181 67.0414 35.6629 67.4504 34.7519 68.0003ZM37.3426 65.9553C37.3426 65.9553 37.2173 66.2234 37.3426 65.9553C37.2173 66.2234 37.2173 66.2234 37.2173 66.2234C37.2173 66.2234 37.2173 66.2234 37.3426 65.9553C37.4848 66.3508 37.2173 66.2234 37.3426 65.9553ZM77.7365 22.8989C77.7365 22.8989 77.6112 23.1671 77.7365 22.8989C77.6112 23.1671 77.6112 23.1671 77.7365 22.8989C77.6112 23.1671 77.7365 22.8989 77.7365 22.8989ZM-6.84154 22.6377C-6.84154 22.6377 -7.23438 22.7785 -6.84154 22.6377C-7.23438 22.7785 -6.96684 22.9059 -6.84154 22.6377C-6.96684 22.9059 -6.96684 22.9059 -6.84154 22.6377C-6.96684 22.9059 -6.96684 22.9059 -6.84154 22.6377ZM11.3511 57.1913C11.3511 57.1913 11.2088 56.7958 11.3511 57.1913C11.2088 56.7958 11.0835 57.064 11.3511 57.1913C11.0835 57.064 11.0835 57.064 11.3511 57.1913Z"
    fill="#040404" fill-opacity="0.10" />
</svg>